<svg width="223" height="101" viewBox="0 0 223 101" fill="none" xmlns="http://www.w3.org/2000/svg">
<path d="M35.4697 70.7437L36.4697 8.24365H47.4697V19.2437V33.2437L59.4697 27.7437L82.9697 37.7437V70.7437H71.4697V43.2437L59.4697 38.7437L47.4697 43.2437V70.7437H35.4697Z" fill="#060606"/>
<path d="M56.4697 59.2437H62.4697V71.2437H56.4697V59.2437Z" fill="black"/>
<path d="M101.049 71.8616C97.6118 71.8616 94.6572 71.1584 92.1856 69.7522C89.7282 68.3317 87.8319 66.3573 86.4967 63.8289C85.1757 61.2863 84.5152 58.3388 84.5152 54.9865C84.5152 51.6201 85.1757 48.6726 86.4967 46.1442C87.8319 43.6016 89.7282 41.6272 92.1856 40.2209C94.6572 38.8005 97.6118 38.0902 101.049 38.0902C104.487 38.0902 107.434 38.8005 109.892 40.2209C112.363 41.6272 114.26 43.6016 115.581 46.1442C116.916 48.6726 117.583 51.6201 117.583 54.9865C117.583 58.3388 116.916 61.2863 115.581 63.8289C114.26 66.3573 112.363 68.3317 109.892 69.7522C107.434 71.1584 104.487 71.8616 101.049 71.8616ZM101.113 63.9993C102.363 63.9993 103.421 63.6158 104.288 62.8488C105.154 62.0817 105.815 61.0164 106.269 59.6527C106.738 58.2891 106.973 56.7124 106.973 54.9226C106.973 53.1044 106.738 51.5135 106.269 50.1499C105.815 48.7863 105.154 47.7209 104.288 46.9539C103.421 46.1868 102.363 45.8033 101.113 45.8033C99.8206 45.8033 98.7268 46.1868 97.8319 46.9539C96.9513 47.7209 96.2765 48.7863 95.8078 50.1499C95.3532 51.5135 95.126 53.1044 95.126 54.9226C95.126 56.7124 95.3532 58.2891 95.8078 59.6527C96.2765 61.0164 96.9513 62.0817 97.8319 62.8488C98.7268 63.6158 99.8206 63.9993 101.113 63.9993ZM122.921 71.2437V38.5164H132.828V44.5249H133.191C133.872 42.5363 135.023 40.9667 136.642 39.8161C138.262 38.6655 140.193 38.0902 142.438 38.0902C144.71 38.0902 146.657 38.6726 148.276 39.8374C149.895 41.0022 150.925 42.5647 151.365 44.5249H151.706C152.317 42.5789 153.51 41.0235 155.286 39.8587C157.061 38.6797 159.157 38.0902 161.571 38.0902C164.668 38.0902 167.182 39.0846 169.114 41.0732C171.046 43.0476 172.012 45.7607 172.012 49.2124V71.2437H161.593V51.5988C161.593 49.9652 161.174 48.7223 160.335 47.8701C159.497 47.0036 158.411 46.5704 157.076 46.5704C155.641 46.5704 154.512 47.0391 153.688 47.9766C152.878 48.8999 152.473 50.1428 152.473 51.7053V71.2437H142.459V51.4922C142.459 49.9723 142.047 48.7721 141.223 47.8914C140.399 47.0107 139.313 46.5704 137.963 46.5704C137.054 46.5704 136.252 46.7905 135.556 47.2309C134.86 47.657 134.313 48.2678 133.915 49.0633C133.532 49.8587 133.34 50.7962 133.34 51.8758V71.2437H122.921ZM193.766 71.8616C190.343 71.8616 187.388 71.1868 184.902 69.8374C182.431 68.4738 180.527 66.5348 179.192 64.0206C177.871 61.4922 177.21 58.488 177.21 55.0079C177.21 51.6272 177.878 48.6726 179.213 46.1442C180.549 43.6016 182.431 41.6272 184.86 40.2209C187.289 38.8005 190.151 38.0902 193.446 38.0902C195.776 38.0902 197.907 38.4525 199.838 39.1769C201.77 39.9013 203.439 40.9738 204.845 42.3942C206.252 43.8147 207.345 45.5689 208.127 47.657C208.908 49.7309 209.299 52.1101 209.299 54.7948V57.3942H180.854V51.3431H199.604C199.59 50.2351 199.327 49.2479 198.816 48.3814C198.304 47.515 197.601 46.8402 196.706 46.3573C195.826 45.8601 194.81 45.6115 193.659 45.6115C192.495 45.6115 191.451 45.8743 190.527 46.3999C189.604 46.9113 188.872 47.6144 188.333 48.5093C187.793 49.39 187.509 50.3914 187.48 51.5135V57.6712C187.48 59.0064 187.743 60.1783 188.269 61.1868C188.794 62.1812 189.54 62.9553 190.506 63.5093C191.472 64.0633 192.622 64.3402 193.958 64.3402C194.881 64.3402 195.719 64.2124 196.472 63.9567C197.225 63.701 197.871 63.3246 198.411 62.8275C198.951 62.3303 199.355 61.7195 199.625 60.9951L209.192 61.2721C208.794 63.4169 207.921 65.2848 206.571 66.8758C205.236 68.4525 203.482 69.6812 201.309 70.5618C199.135 71.4283 196.621 71.8616 193.766 71.8616Z" fill="black"/>
</svg>
